<mxfile host="app.diagrams.net" modified="2022-10-25T09:22:26.238Z" agent="5.0 (Windows NT 10.0; Win64; x64) AppleWebKit/537.36 (KHTML, like Gecko) Chrome/106.0.0.0 Safari/537.36 Edg/106.0.1370.47" etag="z9lQ61tzLLnoCMvvfrDq" version="20.5.1" type="github">
  <diagram id="C5RBs43oDa-KdzZeNtuy" name="Page-1">
    <mxGraphModel dx="2545" dy="1071" grid="1" gridSize="10" guides="1" tooltips="1" connect="1" arrows="1" fold="1" page="1" pageScale="1" pageWidth="827" pageHeight="1169" background="#283618" math="0" shadow="0">
      <root>
        <mxCell id="WIyWlLk6GJQsqaUBKTNV-0" />
        <mxCell id="WIyWlLk6GJQsqaUBKTNV-1" parent="WIyWlLk6GJQsqaUBKTNV-0" />
        <mxCell id="WIyWlLk6GJQsqaUBKTNV-2" value="" style="rounded=1;html=1;jettySize=auto;orthogonalLoop=1;fontSize=11;endArrow=block;endFill=0;endSize=8;strokeWidth=1;shadow=0;labelBackgroundColor=none;edgeStyle=orthogonalEdgeStyle;strokeColor=#DDA15E;fontColor=#FEFAE0;" parent="WIyWlLk6GJQsqaUBKTNV-1" source="WIyWlLk6GJQsqaUBKTNV-3" target="WIyWlLk6GJQsqaUBKTNV-6" edge="1">
          <mxGeometry relative="1" as="geometry" />
        </mxCell>
        <mxCell id="WIyWlLk6GJQsqaUBKTNV-3" value="로그인한다." style="rounded=1;whiteSpace=wrap;html=1;fontSize=12;glass=0;strokeWidth=1;shadow=0;fillColor=#BC6C25;strokeColor=#DDA15E;fontColor=#FEFAE0;" parent="WIyWlLk6GJQsqaUBKTNV-1" vertex="1">
          <mxGeometry x="160" y="80" width="120" height="40" as="geometry" />
        </mxCell>
        <mxCell id="WIyWlLk6GJQsqaUBKTNV-4" value="" style="rounded=1;html=1;jettySize=auto;orthogonalLoop=1;fontSize=11;endArrow=block;endFill=0;endSize=8;strokeWidth=1;shadow=0;labelBackgroundColor=none;edgeStyle=orthogonalEdgeStyle;exitX=0;exitY=0.5;exitDx=0;exitDy=0;strokeColor=#DDA15E;fontColor=#FEFAE0;" parent="WIyWlLk6GJQsqaUBKTNV-1" source="uTJ20x3BxYvYmIFZIfHo-15" target="uTJ20x3BxYvYmIFZIfHo-9" edge="1">
          <mxGeometry y="20" relative="1" as="geometry">
            <mxPoint as="offset" />
            <mxPoint x="320" y="465" as="sourcePoint" />
            <mxPoint x="320" y="505" as="targetPoint" />
            <Array as="points">
              <mxPoint x="420" y="485" />
            </Array>
          </mxGeometry>
        </mxCell>
        <mxCell id="WIyWlLk6GJQsqaUBKTNV-6" value="가입한 회원?" style="rhombus;whiteSpace=wrap;html=1;shadow=0;fontFamily=Helvetica;fontSize=12;align=center;strokeWidth=1;spacing=6;spacingTop=-4;fillColor=#BC6C25;strokeColor=#DDA15E;fontColor=#FEFAE0;rounded=1;" parent="WIyWlLk6GJQsqaUBKTNV-1" vertex="1">
          <mxGeometry x="145" y="170" width="150" height="80" as="geometry" />
        </mxCell>
        <mxCell id="uTJ20x3BxYvYmIFZIfHo-0" value="로그인 화면" style="ellipse;whiteSpace=wrap;html=1;fillColor=#BC6C25;strokeColor=#DDA15E;fontColor=#FEFAE0;rounded=1;" vertex="1" parent="WIyWlLk6GJQsqaUBKTNV-1">
          <mxGeometry x="-10" y="60" width="120" height="80" as="geometry" />
        </mxCell>
        <mxCell id="uTJ20x3BxYvYmIFZIfHo-2" value="" style="edgeStyle=segmentEdgeStyle;endArrow=classic;html=1;rounded=1;exitX=1;exitY=0.5;exitDx=0;exitDy=0;labelBackgroundColor=#283618;strokeColor=#DDA15E;fontColor=#FEFAE0;" edge="1" parent="WIyWlLk6GJQsqaUBKTNV-1" source="uTJ20x3BxYvYmIFZIfHo-0" target="WIyWlLk6GJQsqaUBKTNV-3">
          <mxGeometry width="50" height="50" relative="1" as="geometry">
            <mxPoint x="80" y="160" as="sourcePoint" />
            <mxPoint x="130" y="110" as="targetPoint" />
          </mxGeometry>
        </mxCell>
        <mxCell id="uTJ20x3BxYvYmIFZIfHo-4" value="관리자 화면으로 이동한다." style="shape=offPageConnector;whiteSpace=wrap;html=1;fillColor=#BC6C25;strokeColor=#DDA15E;fontColor=#FEFAE0;rounded=1;" vertex="1" parent="WIyWlLk6GJQsqaUBKTNV-1">
          <mxGeometry x="145" y="300" width="150" height="90" as="geometry" />
        </mxCell>
        <mxCell id="uTJ20x3BxYvYmIFZIfHo-5" value="Yes" style="rounded=1;html=1;jettySize=auto;orthogonalLoop=1;fontSize=11;endArrow=block;endFill=0;endSize=8;strokeWidth=1;shadow=0;labelBackgroundColor=none;edgeStyle=orthogonalEdgeStyle;exitX=0.5;exitY=1;exitDx=0;exitDy=0;entryX=0.5;entryY=0;entryDx=0;entryDy=0;strokeColor=#DDA15E;fontColor=#FEFAE0;" edge="1" parent="WIyWlLk6GJQsqaUBKTNV-1" source="WIyWlLk6GJQsqaUBKTNV-6" target="uTJ20x3BxYvYmIFZIfHo-4">
          <mxGeometry y="20" relative="1" as="geometry">
            <mxPoint as="offset" />
            <mxPoint x="290" y="315" as="sourcePoint" />
            <mxPoint x="220" y="300" as="targetPoint" />
          </mxGeometry>
        </mxCell>
        <mxCell id="uTJ20x3BxYvYmIFZIfHo-7" value="No" style="rounded=1;html=1;jettySize=auto;orthogonalLoop=1;fontSize=11;endArrow=block;endFill=0;endSize=8;strokeWidth=1;shadow=0;labelBackgroundColor=none;edgeStyle=orthogonalEdgeStyle;exitX=0;exitY=0.5;exitDx=0;exitDy=0;strokeColor=#DDA15E;fontColor=#FEFAE0;" edge="1" parent="WIyWlLk6GJQsqaUBKTNV-1" source="WIyWlLk6GJQsqaUBKTNV-6">
          <mxGeometry y="20" relative="1" as="geometry">
            <mxPoint as="offset" />
            <mxPoint x="49.5" y="90" as="sourcePoint" />
            <mxPoint x="50" y="140" as="targetPoint" />
          </mxGeometry>
        </mxCell>
        <mxCell id="uTJ20x3BxYvYmIFZIfHo-9" value="자주 묻는 질문 목록 &lt;br&gt;화면으로&amp;nbsp;이동한다." style="shape=offPageConnector;whiteSpace=wrap;html=1;fillColor=#BC6C25;strokeColor=#DDA15E;fontColor=#FEFAE0;rounded=1;" vertex="1" parent="WIyWlLk6GJQsqaUBKTNV-1">
          <mxGeometry x="145" y="440" width="150" height="90" as="geometry" />
        </mxCell>
        <mxCell id="uTJ20x3BxYvYmIFZIfHo-10" value="Yes" style="rounded=1;html=1;jettySize=auto;orthogonalLoop=1;fontSize=11;endArrow=block;endFill=0;endSize=8;strokeWidth=1;shadow=0;labelBackgroundColor=none;edgeStyle=orthogonalEdgeStyle;exitX=0.5;exitY=1;exitDx=0;exitDy=0;entryX=0.5;entryY=0;entryDx=0;entryDy=0;strokeColor=#DDA15E;fontColor=#FEFAE0;" edge="1" parent="WIyWlLk6GJQsqaUBKTNV-1" source="uTJ20x3BxYvYmIFZIfHo-4" target="uTJ20x3BxYvYmIFZIfHo-9">
          <mxGeometry y="20" relative="1" as="geometry">
            <mxPoint as="offset" />
            <mxPoint x="220" y="380" as="sourcePoint" />
            <mxPoint x="220" y="430" as="targetPoint" />
          </mxGeometry>
        </mxCell>
        <mxCell id="uTJ20x3BxYvYmIFZIfHo-15" value="DB 연동" style="shape=datastore;whiteSpace=wrap;html=1;fillColor=#BC6C25;strokeColor=#DDA15E;fontColor=#FEFAE0;rounded=1;" vertex="1" parent="WIyWlLk6GJQsqaUBKTNV-1">
          <mxGeometry x="390" y="300" width="60" height="60" as="geometry" />
        </mxCell>
        <mxCell id="uTJ20x3BxYvYmIFZIfHo-19" value="자주 묻는 질문 삭제" style="rounded=1;whiteSpace=wrap;html=1;fillColor=#BC6C25;strokeColor=#DDA15E;fontColor=#FEFAE0;" vertex="1" parent="WIyWlLk6GJQsqaUBKTNV-1">
          <mxGeometry x="145" y="585" width="150" height="60" as="geometry" />
        </mxCell>
        <mxCell id="uTJ20x3BxYvYmIFZIfHo-23" value="관리자 비밀 번호 &lt;br&gt;일치?" style="rhombus;whiteSpace=wrap;html=1;shadow=0;fontFamily=Helvetica;fontSize=12;align=center;strokeWidth=1;spacing=6;spacingTop=-4;fillColor=#BC6C25;strokeColor=#DDA15E;fontColor=#FEFAE0;rounded=1;" vertex="1" parent="WIyWlLk6GJQsqaUBKTNV-1">
          <mxGeometry x="145" y="700" width="150" height="80" as="geometry" />
        </mxCell>
        <mxCell id="uTJ20x3BxYvYmIFZIfHo-25" value="" style="rounded=1;html=1;jettySize=auto;orthogonalLoop=1;fontSize=11;endArrow=block;endFill=0;endSize=8;strokeWidth=1;shadow=0;labelBackgroundColor=none;edgeStyle=orthogonalEdgeStyle;exitX=0.5;exitY=1;exitDx=0;exitDy=0;strokeColor=#DDA15E;fontColor=#FEFAE0;" edge="1" parent="WIyWlLk6GJQsqaUBKTNV-1" target="uTJ20x3BxYvYmIFZIfHo-19">
          <mxGeometry x="-0.6396" y="20" relative="1" as="geometry">
            <mxPoint as="offset" />
            <mxPoint x="219.5" y="530" as="sourcePoint" />
            <mxPoint x="219.5" y="580" as="targetPoint" />
          </mxGeometry>
        </mxCell>
        <mxCell id="uTJ20x3BxYvYmIFZIfHo-27" value="" style="rounded=1;html=1;jettySize=auto;orthogonalLoop=1;fontSize=11;endArrow=block;endFill=0;endSize=8;strokeWidth=1;shadow=0;labelBackgroundColor=none;edgeStyle=orthogonalEdgeStyle;exitX=0.5;exitY=1;exitDx=0;exitDy=0;strokeColor=#DDA15E;fontColor=#FEFAE0;" edge="1" parent="WIyWlLk6GJQsqaUBKTNV-1" source="uTJ20x3BxYvYmIFZIfHo-19">
          <mxGeometry y="20" relative="1" as="geometry">
            <mxPoint as="offset" />
            <mxPoint x="210" y="670" as="sourcePoint" />
            <mxPoint x="220" y="700" as="targetPoint" />
            <Array as="points">
              <mxPoint x="220" y="700" />
            </Array>
          </mxGeometry>
        </mxCell>
        <mxCell id="uTJ20x3BxYvYmIFZIfHo-28" value="체크박스에 체크 완료?" style="rhombus;whiteSpace=wrap;html=1;shadow=0;fontFamily=Helvetica;fontSize=12;align=center;strokeWidth=1;spacing=6;spacingTop=-4;fillColor=#BC6C25;strokeColor=#DDA15E;fontColor=#FEFAE0;rounded=1;" vertex="1" parent="WIyWlLk6GJQsqaUBKTNV-1">
          <mxGeometry x="145" y="840" width="150" height="80" as="geometry" />
        </mxCell>
        <mxCell id="uTJ20x3BxYvYmIFZIfHo-29" value="Yes" style="rounded=1;html=1;jettySize=auto;orthogonalLoop=1;fontSize=11;endArrow=block;endFill=0;endSize=8;strokeWidth=1;shadow=0;labelBackgroundColor=none;edgeStyle=orthogonalEdgeStyle;exitX=0.5;exitY=1;exitDx=0;exitDy=0;entryX=0.5;entryY=0;entryDx=0;entryDy=0;strokeColor=#DDA15E;fontColor=#FEFAE0;" edge="1" parent="WIyWlLk6GJQsqaUBKTNV-1" source="uTJ20x3BxYvYmIFZIfHo-23" target="uTJ20x3BxYvYmIFZIfHo-28">
          <mxGeometry y="20" relative="1" as="geometry">
            <mxPoint as="offset" />
            <mxPoint x="280" y="790" as="sourcePoint" />
            <mxPoint x="281" y="845" as="targetPoint" />
            <Array as="points" />
          </mxGeometry>
        </mxCell>
        <mxCell id="uTJ20x3BxYvYmIFZIfHo-31" value="자주 묻는 질문 삭제" style="rounded=1;whiteSpace=wrap;html=1;fillColor=#BC6C25;strokeColor=#DDA15E;fontColor=#FEFAE0;" vertex="1" parent="WIyWlLk6GJQsqaUBKTNV-1">
          <mxGeometry x="145" y="980" width="150" height="60" as="geometry" />
        </mxCell>
        <mxCell id="uTJ20x3BxYvYmIFZIfHo-32" value="Yes" style="rounded=1;html=1;jettySize=auto;orthogonalLoop=1;fontSize=11;endArrow=block;endFill=0;endSize=8;strokeWidth=1;shadow=0;labelBackgroundColor=none;edgeStyle=orthogonalEdgeStyle;exitX=0.5;exitY=1;exitDx=0;exitDy=0;entryX=0.5;entryY=0;entryDx=0;entryDy=0;strokeColor=#DDA15E;fontColor=#FEFAE0;" edge="1" parent="WIyWlLk6GJQsqaUBKTNV-1" target="uTJ20x3BxYvYmIFZIfHo-31">
          <mxGeometry x="-0.3379" y="20" relative="1" as="geometry">
            <mxPoint as="offset" />
            <mxPoint x="219.58" y="920" as="sourcePoint" />
            <mxPoint x="220" y="980" as="targetPoint" />
            <Array as="points" />
          </mxGeometry>
        </mxCell>
        <mxCell id="uTJ20x3BxYvYmIFZIfHo-33" value="자주 묻는 질문 삭제 완료&lt;br&gt;화면으로&amp;nbsp;이동한다." style="shape=offPageConnector;whiteSpace=wrap;html=1;fillColor=#BC6C25;strokeColor=#DDA15E;fontColor=#FEFAE0;rounded=1;" vertex="1" parent="WIyWlLk6GJQsqaUBKTNV-1">
          <mxGeometry x="-70" y="980" width="150" height="90" as="geometry" />
        </mxCell>
        <mxCell id="uTJ20x3BxYvYmIFZIfHo-34" value="" style="rounded=1;html=1;jettySize=auto;orthogonalLoop=1;fontSize=11;endArrow=block;endFill=0;endSize=8;strokeWidth=1;shadow=0;labelBackgroundColor=none;edgeStyle=orthogonalEdgeStyle;exitX=0;exitY=0.5;exitDx=0;exitDy=0;strokeColor=#DDA15E;fontColor=#FEFAE0;" edge="1" parent="WIyWlLk6GJQsqaUBKTNV-1" source="uTJ20x3BxYvYmIFZIfHo-31">
          <mxGeometry x="-0.3379" y="20" relative="1" as="geometry">
            <mxPoint as="offset" />
            <mxPoint x="99.99999999999991" y="1040" as="sourcePoint" />
            <mxPoint x="80" y="1010" as="targetPoint" />
            <Array as="points" />
          </mxGeometry>
        </mxCell>
        <mxCell id="uTJ20x3BxYvYmIFZIfHo-35" value="" style="rounded=1;html=1;jettySize=auto;orthogonalLoop=1;fontSize=11;endArrow=block;endFill=0;endSize=8;strokeWidth=1;shadow=0;labelBackgroundColor=none;edgeStyle=orthogonalEdgeStyle;exitX=0.004;exitY=0.376;exitDx=0;exitDy=0;exitPerimeter=0;entryX=0;entryY=0.5;entryDx=0;entryDy=0;strokeColor=#DDA15E;fontColor=#FEFAE0;" edge="1" parent="WIyWlLk6GJQsqaUBKTNV-1" source="uTJ20x3BxYvYmIFZIfHo-33" target="uTJ20x3BxYvYmIFZIfHo-9">
          <mxGeometry x="-0.3379" y="20" relative="1" as="geometry">
            <mxPoint as="offset" />
            <mxPoint x="-105" y="1009.58" as="sourcePoint" />
            <mxPoint x="-170" y="1009.58" as="targetPoint" />
            <Array as="points">
              <mxPoint x="-180" y="1014" />
              <mxPoint x="-180" y="485" />
            </Array>
          </mxGeometry>
        </mxCell>
        <mxCell id="uTJ20x3BxYvYmIFZIfHo-36" value="No" style="rounded=1;html=1;jettySize=auto;orthogonalLoop=1;fontSize=11;endArrow=block;endFill=0;endSize=8;strokeWidth=1;shadow=0;labelBackgroundColor=none;edgeStyle=orthogonalEdgeStyle;exitX=0;exitY=0.5;exitDx=0;exitDy=0;entryX=0;entryY=0.5;entryDx=0;entryDy=0;strokeColor=#DDA15E;fontColor=#FEFAE0;" edge="1" parent="WIyWlLk6GJQsqaUBKTNV-1" source="uTJ20x3BxYvYmIFZIfHo-23" target="uTJ20x3BxYvYmIFZIfHo-9">
          <mxGeometry y="20" relative="1" as="geometry">
            <mxPoint as="offset" />
            <mxPoint x="40" y="690" as="sourcePoint" />
            <mxPoint x="40" y="745" as="targetPoint" />
            <Array as="points">
              <mxPoint y="740" />
              <mxPoint y="485" />
            </Array>
          </mxGeometry>
        </mxCell>
        <mxCell id="uTJ20x3BxYvYmIFZIfHo-37" value="No" style="rounded=1;html=1;jettySize=auto;orthogonalLoop=1;fontSize=11;endArrow=block;endFill=0;endSize=8;strokeWidth=1;shadow=0;labelBackgroundColor=none;edgeStyle=orthogonalEdgeStyle;exitX=0;exitY=0.5;exitDx=0;exitDy=0;entryX=0;entryY=0.5;entryDx=0;entryDy=0;strokeColor=#DDA15E;fontColor=#FEFAE0;" edge="1" parent="WIyWlLk6GJQsqaUBKTNV-1" source="uTJ20x3BxYvYmIFZIfHo-28" target="uTJ20x3BxYvYmIFZIfHo-9">
          <mxGeometry y="20" relative="1" as="geometry">
            <mxPoint as="offset" />
            <mxPoint x="65" y="935" as="sourcePoint" />
            <mxPoint x="65" y="680.0000000000001" as="targetPoint" />
            <Array as="points">
              <mxPoint x="-80" y="880" />
              <mxPoint x="-80" y="485" />
            </Array>
          </mxGeometry>
        </mxCell>
        <mxCell id="uTJ20x3BxYvYmIFZIfHo-38" value="자주 묻는 질문 등록" style="rounded=1;whiteSpace=wrap;html=1;fillColor=#BC6C25;strokeColor=#DDA15E;fontColor=#FEFAE0;" vertex="1" parent="WIyWlLk6GJQsqaUBKTNV-1">
          <mxGeometry x="339" y="585" width="150" height="60" as="geometry" />
        </mxCell>
        <mxCell id="uTJ20x3BxYvYmIFZIfHo-39" value="" style="rounded=1;html=1;jettySize=auto;orthogonalLoop=1;fontSize=11;endArrow=block;endFill=0;endSize=8;strokeWidth=1;shadow=0;labelBackgroundColor=none;edgeStyle=orthogonalEdgeStyle;exitX=0.5;exitY=1;exitDx=0;exitDy=0;entryX=0.5;entryY=0;entryDx=0;entryDy=0;strokeColor=#DDA15E;fontColor=#FEFAE0;" edge="1" parent="WIyWlLk6GJQsqaUBKTNV-1" source="uTJ20x3BxYvYmIFZIfHo-9" target="uTJ20x3BxYvYmIFZIfHo-38">
          <mxGeometry x="-0.6396" y="20" relative="1" as="geometry">
            <mxPoint as="offset" />
            <mxPoint x="330" y="515" as="sourcePoint" />
            <mxPoint x="330.5" y="570" as="targetPoint" />
            <Array as="points">
              <mxPoint x="414" y="530" />
            </Array>
          </mxGeometry>
        </mxCell>
        <mxCell id="uTJ20x3BxYvYmIFZIfHo-40" value="자주 묻는 질문 내역" style="rounded=1;whiteSpace=wrap;html=1;fillColor=#BC6C25;strokeColor=#DDA15E;fontColor=#FEFAE0;" vertex="1" parent="WIyWlLk6GJQsqaUBKTNV-1">
          <mxGeometry x="550" y="585" width="150" height="60" as="geometry" />
        </mxCell>
        <mxCell id="uTJ20x3BxYvYmIFZIfHo-41" value="" style="rounded=1;html=1;jettySize=auto;orthogonalLoop=1;fontSize=11;endArrow=block;endFill=0;endSize=8;strokeWidth=1;shadow=0;labelBackgroundColor=none;edgeStyle=orthogonalEdgeStyle;exitX=0.5;exitY=1;exitDx=0;exitDy=0;entryX=0.5;entryY=0;entryDx=0;entryDy=0;strokeColor=#DDA15E;fontColor=#FEFAE0;" edge="1" parent="WIyWlLk6GJQsqaUBKTNV-1" source="uTJ20x3BxYvYmIFZIfHo-9" target="uTJ20x3BxYvYmIFZIfHo-40">
          <mxGeometry x="-0.6396" y="20" relative="1" as="geometry">
            <mxPoint as="offset" />
            <mxPoint x="430" y="530" as="sourcePoint" />
            <mxPoint x="624" y="585" as="targetPoint" />
            <Array as="points">
              <mxPoint x="625" y="530" />
            </Array>
          </mxGeometry>
        </mxCell>
        <mxCell id="uTJ20x3BxYvYmIFZIfHo-42" value="자주 묻는 질문 검색" style="rounded=1;whiteSpace=wrap;html=1;fillColor=#BC6C25;strokeColor=#DDA15E;fontColor=#FEFAE0;" vertex="1" parent="WIyWlLk6GJQsqaUBKTNV-1">
          <mxGeometry x="560" y="370" width="150" height="60" as="geometry" />
        </mxCell>
        <mxCell id="uTJ20x3BxYvYmIFZIfHo-43" value="" style="rounded=1;html=1;jettySize=auto;orthogonalLoop=1;fontSize=11;endArrow=block;endFill=0;endSize=8;strokeWidth=1;shadow=0;labelBackgroundColor=none;edgeStyle=orthogonalEdgeStyle;exitX=0.5;exitY=1;exitDx=0;exitDy=0;entryX=0.5;entryY=1;entryDx=0;entryDy=0;strokeColor=#DDA15E;fontColor=#FEFAE0;" edge="1" parent="WIyWlLk6GJQsqaUBKTNV-1" source="uTJ20x3BxYvYmIFZIfHo-9" target="uTJ20x3BxYvYmIFZIfHo-42">
          <mxGeometry x="-0.6396" y="20" relative="1" as="geometry">
            <mxPoint as="offset" />
            <mxPoint x="360" y="510" as="sourcePoint" />
            <mxPoint x="765" y="565" as="targetPoint" />
            <Array as="points">
              <mxPoint x="635" y="530" />
            </Array>
          </mxGeometry>
        </mxCell>
        <mxCell id="uTJ20x3BxYvYmIFZIfHo-44" value="자주 묻는 질문 수정" style="rounded=1;whiteSpace=wrap;html=1;fillColor=#BC6C25;strokeColor=#DDA15E;fontColor=#FEFAE0;" vertex="1" parent="WIyWlLk6GJQsqaUBKTNV-1">
          <mxGeometry x="550" y="700" width="150" height="60" as="geometry" />
        </mxCell>
        <mxCell id="uTJ20x3BxYvYmIFZIfHo-45" value="" style="rounded=1;html=1;jettySize=auto;orthogonalLoop=1;fontSize=11;endArrow=block;endFill=0;endSize=8;strokeWidth=1;shadow=0;labelBackgroundColor=none;edgeStyle=orthogonalEdgeStyle;exitX=0.5;exitY=1;exitDx=0;exitDy=0;strokeColor=#DDA15E;fontColor=#FEFAE0;" edge="1" parent="WIyWlLk6GJQsqaUBKTNV-1" source="uTJ20x3BxYvYmIFZIfHo-40">
          <mxGeometry y="20" relative="1" as="geometry">
            <mxPoint as="offset" />
            <mxPoint x="624.5" y="670" as="sourcePoint" />
            <mxPoint x="625" y="700" as="targetPoint" />
            <Array as="points" />
          </mxGeometry>
        </mxCell>
      </root>
    </mxGraphModel>
  </diagram>
</mxfile>
